name ./resultDataOpenSim/trcMotMarkerGrf/sub09/grf-03-03.mot
datacolumns 19
datarows 17
range 0.47600000 0.54000000
endheader

                time	     ground_force_vx	     ground_force_vy	     ground_force_vz	     ground_force_px	     ground_force_py	     ground_force_pz	   l_ground_force_vx	   l_ground_force_vy	   l_ground_force_vz	   l_ground_force_px	   l_ground_force_py	   l_ground_force_pz	     ground_torque_x	     ground_torque_y	     ground_torque_z	   l_ground_torque_x	   l_ground_torque_y	   l_ground_torque_z	
          0.47600000	         33.44065010	        422.61784816	        -15.13764005	         -0.73929883	          0.00000000	          0.09609783	          0.00000000	          0.00000000	          0.00000000	          0.00000000	          0.00000000	          0.00000000	          0.00000000	          2.75435689	          0.00000000	          0.00000000	          0.00000000	          0.00000000	
          0.48000000	         37.05898212	        429.76245802	        -14.71414137	         -0.73811634	          0.00000000	          0.09693172	          0.00000000	          0.00000000	          0.00000000	          0.00000000	          0.00000000	          0.00000000	          0.00000000	          3.05107727	          0.00000000	          0.00000000	          0.00000000	          0.00000000	
          0.48400000	         40.49767593	        437.32839658	        -14.25930189	         -0.73673310	          0.00000000	          0.09775749	          0.00000000	          0.00000000	          0.00000000	          0.00000000	          0.00000000	          0.00000000	          0.00000000	          3.38585283	          0.00000000	          0.00000000	          0.00000000	          0.00000000	
          0.48800000	         43.74077286	        445.30937704	        -14.09722792	         -0.73513472	          0.00000000	          0.09858132	          0.00000000	          0.00000000	          0.00000000	          0.00000000	          0.00000000	          0.00000000	          0.00000000	          3.71544175	          0.00000000	          0.00000000	          0.00000000	          0.00000000	
          0.49200000	         46.82279981	        453.71480923	        -14.50235614	         -0.73332928	          0.00000000	          0.09940443	          0.00000000	          0.00000000	          0.00000000	          0.00000000	          0.00000000	          0.00000000	          0.00000000	          3.99824001	          0.00000000	          0.00000000	          0.00000000	          0.00000000	
          0.49600000	         49.80557338	        462.55171530	        -15.64473051	         -0.73135026	          0.00000000	          0.10022591	          0.00000000	          0.00000000	          0.00000000	          0.00000000	          0.00000000	          0.00000000	          0.00000000	          4.20221806	          0.00000000	          0.00000000	          0.00000000	          0.00000000	
          0.50000000	         52.75833797	        471.82750616	        -17.55453470	         -0.72924877	          0.00000000	          0.10103653	          0.00000000	          0.00000000	          0.00000000	          0.00000000	          0.00000000	          0.00000000	          0.00000000	          4.31078748	          0.00000000	          0.00000000	          0.00000000	          0.00000000	
          0.50400000	         55.74504433	        481.57643619	        -20.11740105	         -0.72707122	          0.00000000	          0.10181825	          0.00000000	          0.00000000	          0.00000000	          0.00000000	          0.00000000	          0.00000000	          0.00000000	          4.32536631	          0.00000000	          0.00000000	          0.00000000	          0.00000000	
          0.50800000	         58.81581753	        491.87253764	        -23.10136468	         -0.72489075	          0.00000000	          0.10254799	          0.00000000	          0.00000000	          0.00000000	          0.00000000	          0.00000000	          0.00000000	          0.00000000	          4.26407263	          0.00000000	          0.00000000	          0.00000000	          0.00000000	
          0.51200000	         62.00289605	        502.81397648	        -26.20619961	         -0.72276881	          0.00000000	          0.10319859	          0.00000000	          0.00000000	          0.00000000	          0.00000000	          0.00000000	          0.00000000	          0.00000000	          4.15688752	          0.00000000	          0.00000000	          0.00000000	          0.00000000	
          0.51600000	         65.32016995	        514.49793843	        -29.12282561	         -0.72075622	          0.00000000	          0.10374018	          0.00000000	          0.00000000	          0.00000000	          0.00000000	          0.00000000	          0.00000000	          0.00000000	          4.03858577	          0.00000000	          0.00000000	          0.00000000	          0.00000000	
          0.52000000	         68.76462995	        527.00162453	        -31.58626735	         -0.71888863	          0.00000000	          0.10414675	          0.00000000	          0.00000000	          0.00000000	          0.00000000	          0.00000000	          0.00000000	          0.00000000	          3.94127084	          0.00000000	          0.00000000	          0.00000000	          0.00000000	
          0.52400000	         72.32024238	        540.36756767	        -33.40932584	         -0.71718471	          0.00000000	          0.10440224	          0.00000000	          0.00000000	          0.00000000	          0.00000000	          0.00000000	          0.00000000	          0.00000000	          3.88826419	          0.00000000	          0.00000000	          0.00000000	          0.00000000	
          0.52800000	         75.96596025	        554.59020721	        -34.49469271	         -0.71565093	          0.00000000	          0.10449953	          0.00000000	          0.00000000	          0.00000000	          0.00000000	          0.00000000	          0.00000000	          0.00000000	          3.89054289	          0.00000000	          0.00000000	          0.00000000	          0.00000000	
          0.53200000	         79.68429724	        569.60734549	        -34.83250066	         -0.71428398	          0.00000000	          0.10443449	          0.00000000	          0.00000000	          0.00000000	          0.00000000	          0.00000000	          0.00000000	          0.00000000	          3.94614603	          0.00000000	          0.00000000	          0.00000000	          0.00000000	
          0.53600000	         83.46541997	        585.29493213	        -34.49704334	         -0.71307338	          0.00000000	          0.10421181	          0.00000000	          0.00000000	          0.00000000	          0.00000000	          0.00000000	          0.00000000	          0.00000000	          4.04225849	          0.00000000	          0.00000000	          0.00000000	          0.00000000	
          0.54000000	         87.31157263	        601.46332070	        -33.64185224	         -0.71199447	          0.00000000	          0.10385539	          0.00000000	          0.00000000	          0.00000000	          0.00000000	          0.00000000	          0.00000000	          0.00000000	          4.15922263	          0.00000000	          0.00000000	          0.00000000	          0.00000000	
